<svg width="136" height="40" viewBox="0 0 136 40" fill="none" xmlns="http://www.w3.org/2000/svg">
<g clip-path="url(#clip0_1442_66423)">
<path d="M11.25 23.7869C15.0938 23.7869 18.2097 20.5722 18.2097 16.6066C18.2097 12.641 15.0938 9.42623 11.25 9.42623C7.40624 9.42623 4.29025 12.641 4.29025 16.6066V20.0031C4.29025 20.3578 4.13567 20.6936 3.86928 20.9178L0.466789 23.7808C0.279963 23.938 0 23.8009 0 23.5521V16.6066C0 10.1964 5.0368 5 11.25 5C17.4632 5 22.5 10.1964 22.5 16.6066C22.5 23.0167 17.4632 28.2131 11.25 28.2131C10.5783 28.2131 9.9204 28.1524 9.28112 28.036C9.11229 28.0052 8.93805 28.049 8.80534 28.161L0.934166 34.802C0.560645 35.1172 0 34.8429 0 34.3451V29.9844C0 29.8958 0.0386453 29.8118 0.105246 29.7558L4.29025 26.2343V26.2525L6.08935 24.7346C7.23198 23.7706 8.68291 23.4324 10.0269 23.6771C10.421 23.7489 10.8295 23.7869 11.25 23.7869Z" fill="white"/>
</g>
<path d="M46.95 16.95C46.95 17.8833 46.725 18.7583 46.275 19.575C45.8417 20.3917 45.15 21.05 44.2 21.55C43.2667 22.05 42.0833 22.3 40.65 22.3H37.725V29H34.225V11.55H40.65C42 11.55 43.15 11.7833 44.1 12.25C45.05 12.7167 45.7583 13.3583 46.225 14.175C46.7083 14.9917 46.95 15.9167 46.95 16.95ZM40.5 19.475C41.4667 19.475 42.1833 19.2583 42.65 18.825C43.1167 18.375 43.35 17.75 43.35 16.95C43.35 15.25 42.4 14.4 40.5 14.4H37.725V19.475H40.5ZM62.31 21.775C62.31 22.275 62.2766 22.725 62.21 23.125H52.085C52.1683 24.125 52.5183 24.9083 53.135 25.475C53.7516 26.0417 54.51 26.325 55.41 26.325C56.71 26.325 57.635 25.7667 58.185 24.65H61.96C61.56 25.9833 60.7933 27.0833 59.66 27.95C58.5266 28.8 57.135 29.225 55.485 29.225C54.1516 29.225 52.9516 28.9333 51.885 28.35C50.835 27.75 50.01 26.9083 49.41 25.825C48.8266 24.7417 48.535 23.4917 48.535 22.075C48.535 20.6417 48.8266 19.3833 49.41 18.3C49.9933 17.2167 50.81 16.3833 51.86 15.8C52.91 15.2167 54.1183 14.925 55.485 14.925C56.8016 14.925 57.9766 15.2083 59.01 15.775C60.06 16.3417 60.8683 17.15 61.435 18.2C62.0183 19.2333 62.31 20.425 62.31 21.775ZM58.685 20.775C58.6683 19.875 58.3433 19.1583 57.71 18.625C57.0766 18.075 56.3016 17.8 55.385 17.8C54.5183 17.8 53.785 18.0667 53.185 18.6C52.6016 19.1167 52.2433 19.8417 52.11 20.775H58.685ZM68.9396 18.025V24.725C68.9396 25.1917 69.048 25.5333 69.2646 25.75C69.498 25.95 69.8813 26.05 70.4146 26.05H72.0396V29H69.8396C66.8896 29 65.4146 27.5667 65.4146 24.7V18.025H63.7646V15.15H65.4146V11.725H68.9396V15.15H72.0396V18.025H68.9396ZM73.657 22.025C73.657 20.625 73.932 19.3833 74.482 18.3C75.0487 17.2167 75.807 16.3833 76.757 15.8C77.7237 15.2167 78.7987 14.925 79.982 14.925C81.0154 14.925 81.9154 15.1333 82.682 15.55C83.4654 15.9667 84.0904 16.4917 84.557 17.125V15.15H88.082V29H84.557V26.975C84.107 27.625 83.482 28.1667 82.682 28.6C81.8987 29.0167 80.9904 29.225 79.957 29.225C78.7904 29.225 77.7237 28.925 76.757 28.325C75.807 27.725 75.0487 26.8833 74.482 25.8C73.932 24.7 73.657 23.4417 73.657 22.025ZM84.557 22.075C84.557 21.225 84.3904 20.5 84.057 19.9C83.7237 19.2833 83.2737 18.8167 82.707 18.5C82.1404 18.1667 81.532 18 80.882 18C80.232 18 79.632 18.1583 79.082 18.475C78.532 18.7917 78.082 19.2583 77.732 19.875C77.3987 20.475 77.232 21.1917 77.232 22.025C77.232 22.8583 77.3987 23.5917 77.732 24.225C78.082 24.8417 78.532 25.3167 79.082 25.65C79.6487 25.9833 80.2487 26.15 80.882 26.15C81.532 26.15 82.1404 25.9917 82.707 25.675C83.2737 25.3417 83.7237 24.875 84.057 24.275C84.3904 23.6583 84.557 22.925 84.557 22.075ZM96.8004 26.9L101.05 15.3H103.475L98.1004 29H95.4504L90.0754 15.3H92.5254L96.8004 26.9ZM117.864 15.3V29H115.589V26.975C115.156 27.675 114.547 28.225 113.764 28.625C112.997 29.0083 112.147 29.2 111.214 29.2C110.147 29.2 109.189 28.9833 108.339 28.55C107.489 28.1 106.814 27.4333 106.314 26.55C105.831 25.6667 105.589 24.5917 105.589 23.325V15.3H107.839V23.025C107.839 24.375 108.181 25.4167 108.864 26.15C109.547 26.8667 110.481 27.225 111.664 27.225C112.881 27.225 113.839 26.85 114.539 26.1C115.239 25.35 115.589 24.2583 115.589 22.825V15.3H117.864ZM134.205 21.625C134.205 22.0583 134.18 22.5167 134.13 23H123.18C123.264 24.35 123.722 25.4083 124.555 26.175C125.405 26.925 126.43 27.3 127.63 27.3C128.614 27.3 129.43 27.075 130.08 26.625C130.747 26.1583 131.214 25.5417 131.48 24.775H133.93C133.564 26.0917 132.83 27.1667 131.73 28C130.63 28.8167 129.264 29.225 127.63 29.225C126.33 29.225 125.164 28.9333 124.13 28.35C123.114 27.7667 122.314 26.9417 121.73 25.875C121.147 24.7917 120.855 23.5417 120.855 22.125C120.855 20.7083 121.139 19.4667 121.705 18.4C122.272 17.3333 123.064 16.5167 124.08 15.95C125.114 15.3667 126.297 15.075 127.63 15.075C128.93 15.075 130.08 15.3583 131.08 15.925C132.08 16.4917 132.847 17.275 133.38 18.275C133.93 19.2583 134.205 20.375 134.205 21.625ZM131.855 21.15C131.855 20.2833 131.664 19.5417 131.28 18.925C130.897 18.2917 130.372 17.8167 129.705 17.5C129.055 17.1667 128.33 17 127.53 17C126.38 17 125.397 17.3667 124.58 18.1C123.78 18.8333 123.322 19.85 123.205 21.15H131.855Z" fill="white"/>
<defs>
<clipPath id="clip0_1442_66423">
<rect width="22.5" height="30" fill="white" transform="translate(0 5)"/>
</clipPath>
</defs>
</svg>
